<svg width="40" height="40" viewBox="0 0 40 40" fill="none" xmlns="http://www.w3.org/2000/svg">
<path d="M20 14.44V17.77" stroke="#FFFAFA" stroke-width="1.5" stroke-miterlimit="10" stroke-linecap="round"/>
<path d="M20.02 10C16.34 10 13.36 12.98 13.36 16.66V18.76C13.36 19.44 13.08 20.46 12.73 21.04L11.46 23.16C10.68 24.47 11.22 25.93 12.66 26.41C17.44 28 22.61 28 27.39 26.41C28.74 25.96 29.32 24.38 28.59 23.16L27.32 21.04C26.97 20.46 26.69 19.43 26.69 18.76V16.66C26.68 13 23.68 10 20.02 10Z" stroke="#FFFAFA" stroke-width="1.5" stroke-miterlimit="10" stroke-linecap="round"/>
<path d="M23.33 26.82C23.33 28.65 21.83 30.15 20 30.15C19.09 30.15 18.25 29.77 17.65 29.17C17.05 28.57 16.67 27.73 16.67 26.82" stroke="#FFFAFA" stroke-width="1.5" stroke-miterlimit="10"/>
<path d="M31.6666 13.3333C34.4281 13.3333 36.6666 11.0947 36.6666 8.33331C36.6666 5.57189 34.4281 3.33331 31.6666 3.33331C28.9052 3.33331 26.6666 5.57189 26.6666 8.33331C26.6666 11.0947 28.9052 13.3333 31.6666 13.3333Z" stroke="#FEF9F9" stroke-width="1.5" stroke-linecap="round" stroke-linejoin="round"/>
<path d="M23.3667 3.66665C22.2667 3.44998 21.15 3.33331 20 3.33331C10.8 3.33331 3.33337 10.8 3.33337 20C3.33337 29.2 10.8 36.6666 20 36.6666C29.2 36.6666 36.6667 29.2 36.6667 20C36.6667 18.8666 36.55 17.75 36.3334 16.6833" stroke="#FEF9F9" stroke-width="1.5" stroke-linecap="round" stroke-linejoin="round"/>
</svg>
