<svg width="108" height="119" viewBox="0 0 108 119" fill="none" xmlns="http://www.w3.org/2000/svg">
<g filter="url(#filter0_d_279_2584)">
<rect x="4" y="11" width="100" height="100" rx="11" fill="#7DB5C6" fill-opacity="0.3" shape-rendering="crispEdges"/>
</g>
<path d="M72.8335 85.4166H31.1668C18.6668 85.4166 10.3335 79.1666 10.3335 64.5833V35.4166C10.3335 20.8333 18.6668 14.5833 31.1668 14.5833H72.8335C85.3335 14.5833 93.6668 20.8333 93.6668 35.4166V64.5833C93.6668 79.1666 85.3335 85.4166 72.8335 85.4166Z" stroke="#464646" stroke-width="1.5" stroke-miterlimit="10" stroke-linecap="round" stroke-linejoin="round"/>
<path d="M27 33.3333V66.6666" stroke="#464646" stroke-width="1.5" stroke-miterlimit="10" stroke-linecap="round" stroke-linejoin="round"/>
<path d="M39.5 33.3333V49.9999" stroke="#464646" stroke-width="1.5" stroke-miterlimit="10" stroke-linecap="round" stroke-linejoin="round"/>
<path d="M39.5 62.5V66.6667" stroke="#464646" stroke-width="1.5" stroke-miterlimit="10" stroke-linecap="round" stroke-linejoin="round"/>
<path d="M64.5 33.3333V37.4999" stroke="#464646" stroke-width="1.5" stroke-miterlimit="10" stroke-linecap="round" stroke-linejoin="round"/>
<path d="M52 33.3333V66.6666" stroke="#464646" stroke-width="1.5" stroke-miterlimit="10" stroke-linecap="round" stroke-linejoin="round"/>
<path d="M64.5 50V66.6667" stroke="#464646" stroke-width="1.5" stroke-miterlimit="10" stroke-linecap="round" stroke-linejoin="round"/>
<path d="M77 33.3333V66.6666" stroke="#464646" stroke-width="1.5" stroke-miterlimit="10" stroke-linecap="round" stroke-linejoin="round"/>
<path d="M18.6477 108.128C17.9943 108.128 17.4332 107.984 16.9645 107.697C16.4986 107.411 16.1392 107.014 15.8864 106.509C15.6364 106 15.5114 105.415 15.5114 104.753C15.5114 104.088 15.6392 103.501 15.8949 102.993C16.1506 102.482 16.5114 102.084 16.9773 101.8C17.446 101.513 18 101.369 18.6392 101.369C19.1705 101.369 19.6406 101.467 20.0497 101.663C20.4616 101.857 20.7898 102.131 21.0341 102.486C21.2784 102.838 21.4176 103.25 21.4517 103.722H19.9773C19.9176 103.406 19.7756 103.143 19.5511 102.933C19.3295 102.72 19.0327 102.614 18.6605 102.614C18.3452 102.614 18.0682 102.699 17.8295 102.869C17.5909 103.037 17.4048 103.278 17.2713 103.594C17.1406 103.909 17.0753 104.287 17.0753 104.727C17.0753 105.173 17.1406 105.557 17.2713 105.878C17.402 106.196 17.5852 106.442 17.821 106.615C18.0597 106.786 18.3395 106.871 18.6605 106.871C18.8878 106.871 19.0909 106.828 19.2699 106.743C19.4517 106.655 19.6037 106.528 19.7259 106.364C19.848 106.199 19.9318 105.999 19.9773 105.763H21.4517C21.4148 106.226 21.2784 106.636 21.0426 106.994C20.8068 107.349 20.4858 107.628 20.0795 107.83C19.6733 108.028 19.196 108.128 18.6477 108.128ZM24.261 99.2727V108H22.7184V99.2727H24.261ZM25.8473 108V101.455H27.3899V108H25.8473ZM26.6229 100.526C26.3786 100.526 26.1683 100.445 25.9922 100.283C25.8161 100.118 25.728 99.9205 25.728 99.6903C25.728 99.4574 25.8161 99.2599 25.9922 99.098C26.1683 98.9332 26.3786 98.8509 26.6229 98.8509C26.87 98.8509 27.0803 98.9332 27.2536 99.098C27.4297 99.2599 27.5178 99.4574 27.5178 99.6903C27.5178 99.9205 27.4297 100.118 27.2536 100.283C27.0803 100.445 26.87 100.526 26.6229 100.526ZM31.8313 108.128C31.1779 108.128 30.6168 107.984 30.1481 107.697C29.6822 107.411 29.3228 107.014 29.07 106.509C28.82 106 28.695 105.415 28.695 104.753C28.695 104.088 28.8228 103.501 29.0785 102.993C29.3342 102.482 29.695 102.084 30.1609 101.8C30.6296 101.513 31.1836 101.369 31.8228 101.369C32.354 101.369 32.8242 101.467 33.2333 101.663C33.6452 101.857 33.9734 102.131 34.2177 102.486C34.462 102.838 34.6012 103.25 34.6353 103.722H33.1609C33.1012 103.406 32.9592 103.143 32.7347 102.933C32.5131 102.72 32.2163 102.614 31.8441 102.614C31.5288 102.614 31.2518 102.699 31.0131 102.869C30.7745 103.037 30.5884 103.278 30.4549 103.594C30.3242 103.909 30.2589 104.287 30.2589 104.727C30.2589 105.173 30.3242 105.557 30.4549 105.878C30.5856 106.196 30.7688 106.442 31.0046 106.615C31.2433 106.786 31.5231 106.871 31.8441 106.871C32.0714 106.871 32.2745 106.828 32.4535 106.743C32.6353 106.655 32.7873 106.528 32.9094 106.364C33.0316 106.199 33.1154 105.999 33.1609 105.763H34.6353C34.5984 106.226 34.462 106.636 34.2262 106.994C33.9904 107.349 33.6694 107.628 33.2631 107.83C32.8569 108.028 32.3796 108.128 31.8313 108.128ZM37.3082 105.946L37.304 104.084H37.5511L39.9034 101.455H41.706L38.8125 104.676H38.4929L37.3082 105.946ZM35.902 108V99.2727H37.4446V108H35.902ZM40.0099 108L37.8793 105.021L38.919 103.935L41.8551 108H40.0099ZM48.979 101.455V102.648H45.2163V101.455H48.979ZM46.1452 99.8864H47.6879V106.031C47.6879 106.239 47.7191 106.398 47.7816 106.509C47.8469 106.616 47.9322 106.69 48.0373 106.73C48.1424 106.77 48.2589 106.79 48.3867 106.79C48.4833 106.79 48.5714 106.783 48.6509 106.768C48.7333 106.754 48.7958 106.741 48.8384 106.73L49.0984 107.936C49.016 107.964 48.8981 107.996 48.7447 108.03C48.5941 108.064 48.4094 108.084 48.1907 108.089C47.8043 108.101 47.4563 108.043 47.1467 107.915C46.837 107.784 46.5913 107.582 46.4094 107.31C46.2305 107.037 46.1424 106.696 46.1452 106.287V99.8864ZM53.054 108.128C52.4148 108.128 51.8608 107.987 51.392 107.706C50.9233 107.425 50.5597 107.031 50.3011 106.526C50.0455 106.02 49.9176 105.429 49.9176 104.753C49.9176 104.077 50.0455 103.484 50.3011 102.976C50.5597 102.467 50.9233 102.072 51.392 101.791C51.8608 101.51 52.4148 101.369 53.054 101.369C53.6932 101.369 54.2472 101.51 54.7159 101.791C55.1847 102.072 55.5469 102.467 55.8026 102.976C56.0611 103.484 56.1903 104.077 56.1903 104.753C56.1903 105.429 56.0611 106.02 55.8026 106.526C55.5469 107.031 55.1847 107.425 54.7159 107.706C54.2472 107.987 53.6932 108.128 53.054 108.128ZM53.0625 106.892C53.4091 106.892 53.6989 106.797 53.9318 106.607C54.1648 106.413 54.3381 106.155 54.4517 105.831C54.5682 105.507 54.6264 105.146 54.6264 104.749C54.6264 104.348 54.5682 103.986 54.4517 103.662C54.3381 103.335 54.1648 103.075 53.9318 102.882C53.6989 102.689 53.4091 102.592 53.0625 102.592C52.7074 102.592 52.4119 102.689 52.1761 102.882C51.9432 103.075 51.7685 103.335 51.652 103.662C51.5384 103.986 51.4815 104.348 51.4815 104.749C51.4815 105.146 51.5384 105.507 51.652 105.831C51.7685 106.155 51.9432 106.413 52.1761 106.607C52.4119 106.797 52.7074 106.892 53.0625 106.892ZM65.6495 103.185L64.2433 103.338C64.2035 103.196 64.1339 103.062 64.0344 102.938C63.9379 102.812 63.8072 102.712 63.6424 102.635C63.4776 102.558 63.2759 102.52 63.0373 102.52C62.7163 102.52 62.4464 102.589 62.2276 102.729C62.0117 102.868 61.9052 103.048 61.908 103.27C61.9052 103.46 61.9748 103.615 62.1168 103.734C62.2617 103.854 62.5004 103.952 62.8327 104.028L63.9492 104.267C64.5685 104.401 65.0288 104.612 65.3299 104.902C65.6339 105.192 65.7873 105.571 65.7901 106.04C65.7873 106.452 65.6665 106.815 65.4279 107.131C65.1921 107.443 64.864 107.687 64.4435 107.864C64.0231 108.04 63.5401 108.128 62.9947 108.128C62.1935 108.128 61.5487 107.96 61.06 107.625C60.5714 107.287 60.2802 106.817 60.1864 106.214L61.6907 106.07C61.7589 106.365 61.9038 106.588 62.1254 106.739C62.3469 106.889 62.6353 106.964 62.9904 106.964C63.3569 106.964 63.6509 106.889 63.8725 106.739C64.0969 106.588 64.2092 106.402 64.2092 106.18C64.2092 105.993 64.1367 105.838 63.9918 105.716C63.8498 105.594 63.6282 105.5 63.3271 105.435L62.2106 105.2C61.5827 105.07 61.1183 104.849 60.8171 104.54C60.516 104.227 60.3668 103.832 60.3697 103.355C60.3668 102.952 60.4762 102.602 60.6978 102.307C60.9222 102.009 61.2333 101.778 61.631 101.616C62.0316 101.452 62.4933 101.369 63.016 101.369C63.783 101.369 64.3867 101.533 64.8271 101.859C65.2702 102.186 65.5444 102.628 65.6495 103.185ZM69.9173 108.128C69.2638 108.128 68.7028 107.984 68.234 107.697C67.7681 107.411 67.4087 107.014 67.1559 106.509C66.9059 106 66.7809 105.415 66.7809 104.753C66.7809 104.088 66.9087 103.501 67.1644 102.993C67.4201 102.482 67.7809 102.084 68.2468 101.8C68.7156 101.513 69.2695 101.369 69.9087 101.369C70.44 101.369 70.9102 101.467 71.3192 101.663C71.7312 101.857 72.0593 102.131 72.3036 102.486C72.5479 102.838 72.6871 103.25 72.7212 103.722H71.2468C71.1871 103.406 71.0451 103.143 70.8207 102.933C70.5991 102.72 70.3022 102.614 69.93 102.614C69.6147 102.614 69.3377 102.699 69.0991 102.869C68.8604 103.037 68.6744 103.278 68.5408 103.594C68.4102 103.909 68.3448 104.287 68.3448 104.727C68.3448 105.173 68.4102 105.557 68.5408 105.878C68.6715 106.196 68.8548 106.442 69.0906 106.615C69.3292 106.786 69.609 106.871 69.93 106.871C70.1573 106.871 70.3604 106.828 70.5394 106.743C70.7212 106.655 70.8732 106.528 70.9954 106.364C71.1175 106.199 71.2013 105.999 71.2468 105.763H72.7212C72.6843 106.226 72.5479 106.636 72.3121 106.994C72.0763 107.349 71.7553 107.628 71.3491 107.83C70.9428 108.028 70.4656 108.128 69.9173 108.128ZM75.8714 108.132C75.4567 108.132 75.0831 108.058 74.7507 107.911C74.4212 107.76 74.1598 107.538 73.9666 107.246C73.7763 106.953 73.6811 106.592 73.6811 106.163C73.6811 105.794 73.7493 105.489 73.8857 105.247C74.022 105.006 74.2081 104.812 74.4439 104.668C74.6797 104.523 74.9453 104.413 75.2408 104.339C75.5391 104.263 75.8473 104.207 76.1655 104.173C76.549 104.134 76.8601 104.098 77.0987 104.067C77.3374 104.033 77.5107 103.982 77.6186 103.913C77.7294 103.842 77.7848 103.733 77.7848 103.585V103.56C77.7848 103.239 77.6896 102.99 77.4993 102.814C77.3089 102.638 77.0348 102.55 76.6768 102.55C76.299 102.55 75.9993 102.632 75.7777 102.797C75.5589 102.962 75.4112 103.156 75.3345 103.381L73.8942 103.176C74.0078 102.778 74.1953 102.446 74.4567 102.179C74.718 101.909 75.0376 101.707 75.4155 101.574C75.7933 101.438 76.2109 101.369 76.6683 101.369C76.9837 101.369 77.2976 101.406 77.6101 101.48C77.9226 101.554 78.2081 101.676 78.4666 101.847C78.7251 102.014 78.9325 102.243 79.0888 102.533C79.2479 102.822 79.3274 103.185 79.3274 103.619V108H77.8445V107.101H77.7933C77.6996 107.283 77.5675 107.453 77.397 107.612C77.2294 107.768 77.0178 107.895 76.7621 107.991C76.5092 108.085 76.2124 108.132 75.8714 108.132ZM76.272 106.999C76.5817 106.999 76.8501 106.937 77.0774 106.815C77.3047 106.69 77.4794 106.526 77.6016 106.321C77.7266 106.116 77.7891 105.893 77.7891 105.652V104.881C77.7408 104.92 77.6584 104.957 77.5419 104.991C77.4283 105.026 77.3004 105.055 77.1584 105.081C77.0163 105.107 76.8757 105.129 76.7365 105.149C76.5973 105.169 76.4766 105.186 76.3743 105.2C76.1442 105.232 75.9382 105.283 75.7564 105.354C75.5746 105.425 75.4311 105.524 75.326 105.652C75.2209 105.777 75.1683 105.939 75.1683 106.138C75.1683 106.422 75.272 106.636 75.4794 106.781C75.6868 106.926 75.951 106.999 76.272 106.999ZM82.4212 104.165V108H80.8786V101.455H82.353V102.567H82.4297C82.5803 102.2 82.8203 101.909 83.1499 101.693C83.4822 101.477 83.8928 101.369 84.3814 101.369C84.8331 101.369 85.2266 101.466 85.5618 101.659C85.8999 101.852 86.1612 102.132 86.3459 102.499C86.5334 102.865 86.6257 103.31 86.6229 103.832V108H85.0803V104.071C85.0803 103.634 84.9666 103.291 84.7393 103.044C84.5149 102.797 84.2038 102.673 83.8061 102.673C83.5362 102.673 83.2962 102.733 83.0859 102.852C82.8786 102.969 82.7152 103.138 82.5959 103.359C82.4794 103.581 82.4212 103.849 82.4212 104.165Z" fill="black"/>
<defs>
<filter id="filter0_d_279_2584" x="0" y="11" width="108" height="108" filterUnits="userSpaceOnUse" color-interpolation-filters="sRGB">
<feFlood flood-opacity="0" result="BackgroundImageFix"/>
<feColorMatrix in="SourceAlpha" type="matrix" values="0 0 0 0 0 0 0 0 0 0 0 0 0 0 0 0 0 0 127 0" result="hardAlpha"/>
<feOffset dy="4"/>
<feGaussianBlur stdDeviation="2"/>
<feComposite in2="hardAlpha" operator="out"/>
<feColorMatrix type="matrix" values="0 0 0 0 0 0 0 0 0 0 0 0 0 0 0 0 0 0 0.25 0"/>
<feBlend mode="normal" in2="BackgroundImageFix" result="effect1_dropShadow_279_2584"/>
<feBlend mode="normal" in="SourceGraphic" in2="effect1_dropShadow_279_2584" result="shape"/>
</filter>
</defs>
</svg>
